<?xml version="1.0" encoding="UTF-8"?>
<svg width="748px" height="653px" viewBox="0 0 748 653" version="1.1" xmlns="http://www.w3.org/2000/svg" xmlns:xlink="http://www.w3.org/1999/xlink">
    <title>tiptopp_logo</title>
    <defs>
        <polygon id="path-1" points="2.84217094e-14 0 584.689854 0 584.689854 536.12 2.84217094e-14 536.12"></polygon>
    </defs>
    <g id="Page-1" stroke="none" stroke-width="1" fill="none" fill-rule="evenodd">
        <g id="tiptopp_logo" transform="translate(0.000000, 0.670000)">
            <g id="Group-2" transform="translate(0.000000, -0.000000)">
                <polyline id="Fill-16" fill="#2FB2A4" points="697.393 110.55 685.347 148.55 647.272 160.19 685.347 171.83 697.393 210.23 709.041 171.83 747.115 160.19 709.041 148.55 697.393 110.55"></polyline>
                <polyline id="Fill-17" fill="#20A1CF" points="239.717 333.57 233.11 354.13 212.521 360.72 233.11 366.93 239.717 387.48 245.933 366.93 266.528 360.72 245.933 354.13 239.717 333.57"></polyline>
                <polyline id="Fill-18" fill="#79BB53" points="367.153 93.48 362.1 109.77 345.782 114.81 362.1 119.85 367.153 136.14 372.201 119.85 388.525 114.81 372.201 109.77 367.153 93.48"></polyline>
                <polyline id="Fill-19" fill="#79BB53" points="684.963 36.07 679.908 52.75 663.59 57.41 679.908 62.45 684.963 78.74 690.003 62.45 706.321 57.41 690.003 52.75 684.963 36.07"></polyline>
                <polyline id="Fill-20" fill="#2FB2A4" points="31.474 361.49 24.092 385.54 0 392.92 24.092 400.28 31.474 423.95 38.851 400.28 62.943 392.92 38.851 385.54 31.474 361.49"></polyline>
                <polyline id="Fill-21" fill="#1B4571" points="174.447 3.41060513e-13 165.512 28.31 137.54 36.85 165.512 45.38 174.447 73.7 182.996 45.38 210.969 36.85 182.996 28.31 174.447 3.41060513e-13"></polyline>
                <polyline id="Fill-22" fill="#79BB53" points="101.401 66.71 96.745 81.84 81.979 86.11 96.745 90.76 101.401 105.89 106.065 90.76 121.222 86.11 106.065 81.84 101.401 66.71"></polyline>
                <polyline id="Fill-23" fill="#20A1CF" points="313.538 125.28 305.378 151.66 278.959 159.8 305.378 167.95 313.538 194.32 321.306 167.95 347.725 159.8 321.306 151.66 313.538 125.28"></polyline>
            </g>
            <g id="Group-27" transform="translate(94.410000, 115.970000)">
                <mask id="mask-2" fill="white">
                    <use xlink:href="#path-1"></use>
                </mask>
                <g id="Clip-25"></g>
                <polyline id="Fill-24" fill="#20A1CF" mask="url(#mask-2)" points="496.533 0 489.927 21.72 468.555 28.32 489.927 34.91 496.533 56.63 503.127 34.91 524.884 28.32 503.127 21.72 496.533 0"></polyline>
                <path d="M317.027,107.44 L324.801,107.83 L324.801,151.28 L314.307,148.17 C311.203,147.01 309.266,144.29 309.266,140.8 L309.266,115.2 C309.266,113.26 310.036,111.33 311.588,109.77 C313.153,108.22 314.705,107.44 317.027,107.44 Z M386.582,190.84 L391.623,190.84 L391.623,175.32 C391.623,169.89 388.519,165.62 383.465,164.07 L330.625,147.4 L330.625,110.93 L432.032,112.88 C434.367,112.88 436.304,113.65 438.254,115.59 C449.903,127.22 461.949,137.31 473.61,148.95 C476.329,151.28 477.099,154.77 475.93,158.26 C474.777,162.14 473.211,166.02 472.057,169.51 C470.89,172.61 468.555,174.94 465.45,175.32 C459.229,176.48 453.405,177.65 447.183,178.81 C443.694,179.59 440.975,181.92 440.192,185.8 L439.422,190.84 L444.861,190.84 C449.903,190.84 454.175,195.1 454.175,200.53 L454.175,244.37 C454.175,249.79 449.903,254.06 444.861,254.06 L386.582,254.06 C381.143,254.06 376.858,249.79 376.858,244.37 L376.858,200.53 C376.858,195.1 381.143,190.84 386.582,190.84 Z M536.929,70.21 C575.004,125.67 589.001,196.27 583.56,263.76 C578.122,335.52 550.528,403.77 507.412,447.22 C374.138,581.81 106.841,574.45 2.84217094e-14,349.86 C55.561,429.76 148.027,482.13 252.924,482.13 C281.671,482.13 311.203,477.87 339.566,469.32 C339.566,469.32 409.492,443.35 434.752,405.73 C397.063,433.25 358.603,445.67 339.566,450.71 L339.566,399.12 C339.566,399.12 345.788,360.34 378.423,342.5 C404.054,328.53 388.903,284.7 381.143,265.7 L460.781,265.7 C470.107,280.05 486.809,311.08 497.303,361.11 C509.349,345.2 519.842,328.14 528.002,309.53 C560.636,239.33 556.75,136.15 536.929,70.21 Z M365.594,166.4 C361.323,179.59 345.788,199.76 326.352,210.62 C325.185,211.39 323.633,211.01 322.864,210.23 C321.696,209.07 321.696,207.51 322.465,206.35 C334.127,192.39 343.069,177.26 346.173,160.19 L365.594,166.4 L365.594,166.4 Z" id="Fill-26" fill="#1B4571" mask="url(#mask-2)"></path>
            </g>
            <g id="Group" transform="translate(73.624330, 8.861371)">
                <path d="M19.6186701,415.858629 C-21.9503299,301.048629 4.46867009,176.158629 80.6176701,87.7186287 C29.7216701,170.718629 19.2346701,276.218629 61.1956701,372.028629 C112.47667,487.998629 226.69967,556.268629 345.97067,555.098629 C223.59567,588.468629 65.4666701,544.248629 19.6186701,415.858629" id="Fill-28" fill="#238BBF"></path>
                <path d="M59.6366701,278.938629 C74.4026701,366.988629 115.97167,425.938629 182.41067,480.638629 C107.03767,391.808629 88.7756701,270.408629 118.69167,170.338629 C143.16867,88.8786287 195.23267,27.9886287 271.77267,7.81862872 C201.83867,10.9186287 138.51167,45.8286287 96.9356701,103.618629 C60.8036701,154.048629 48.3736701,213.388629 59.6366701,278.938629" id="Fill-29" fill="#20A1CF"></path>
                <path d="M281.86767,16.7386287 C210.38167,46.5986287 169.58867,90.8186287 138.12067,153.268629 C256.23067,-0.721371284 486.62167,16.3486287 604.73067,126.898629 C551.50667,28.7686287 396.87467,-30.9713713 281.86767,16.7386287" id="Fill-30" fill="#2FB2A4"></path>
            </g>
        </g>
    </g>
</svg>